<mxfile host="Electron" modified="2023-11-03T05:53:10.962Z" agent="Mozilla/5.0 (Windows NT 10.0; Win64; x64) AppleWebKit/537.36 (KHTML, like Gecko) draw.io/22.0.2 Chrome/114.0.5735.289 Electron/25.8.4 Safari/537.36" etag="pxNsYUJTn3xL-XKmkcEx" version="22.0.2" type="device">
  <diagram id="C5RBs43oDa-KdzZeNtuy" name="Page-1">
    <mxGraphModel dx="1869" dy="1310" grid="1" gridSize="10" guides="1" tooltips="1" connect="1" arrows="1" fold="1" page="1" pageScale="1" pageWidth="827" pageHeight="1169" math="0" shadow="0">
      <root>
        <mxCell id="WIyWlLk6GJQsqaUBKTNV-0" />
        <mxCell id="WIyWlLk6GJQsqaUBKTNV-1" parent="WIyWlLk6GJQsqaUBKTNV-0" />
        <mxCell id="UTym1vw6tCTuyiW-40KR-0" value="Игроки" style="swimlane;fontStyle=0;childLayout=stackLayout;horizontal=1;startSize=20;horizontalStack=0;resizeParent=1;resizeParentMax=0;resizeLast=0;collapsible=1;marginBottom=0;whiteSpace=wrap;html=1;" parent="WIyWlLk6GJQsqaUBKTNV-1" vertex="1">
          <mxGeometry x="300" y="580" width="140" height="140" as="geometry" />
        </mxCell>
        <mxCell id="UTym1vw6tCTuyiW-40KR-1" value="[PK] ID (NUMBER)" style="text;strokeColor=none;fillColor=none;align=left;verticalAlign=middle;spacingLeft=4;spacingRight=4;overflow=hidden;points=[[0,0.5],[1,0.5]];portConstraint=eastwest;rotatable=0;whiteSpace=wrap;html=1;" parent="UTym1vw6tCTuyiW-40KR-0" vertex="1">
          <mxGeometry y="20" width="140" height="30" as="geometry" />
        </mxCell>
        <mxCell id="UTym1vw6tCTuyiW-40KR-2" value="[FK] Имя (VARCHAR2)" style="text;strokeColor=none;fillColor=none;align=left;verticalAlign=middle;spacingLeft=4;spacingRight=4;overflow=hidden;points=[[0,0.5],[1,0.5]];portConstraint=eastwest;rotatable=0;whiteSpace=wrap;html=1;" parent="UTym1vw6tCTuyiW-40KR-0" vertex="1">
          <mxGeometry y="50" width="140" height="30" as="geometry" />
        </mxCell>
        <mxCell id="UTym1vw6tCTuyiW-40KR-3" value="Уровень (NUMBER)" style="text;strokeColor=none;fillColor=none;align=left;verticalAlign=middle;spacingLeft=4;spacingRight=4;overflow=hidden;points=[[0,0.5],[1,0.5]];portConstraint=eastwest;rotatable=0;whiteSpace=wrap;html=1;" parent="UTym1vw6tCTuyiW-40KR-0" vertex="1">
          <mxGeometry y="80" width="140" height="30" as="geometry" />
        </mxCell>
        <mxCell id="UTym1vw6tCTuyiW-40KR-4" value="Опыт (NUMBER)" style="text;strokeColor=none;fillColor=none;align=left;verticalAlign=middle;spacingLeft=4;spacingRight=4;overflow=hidden;points=[[0,0.5],[1,0.5]];portConstraint=eastwest;rotatable=0;whiteSpace=wrap;html=1;" parent="UTym1vw6tCTuyiW-40KR-0" vertex="1">
          <mxGeometry y="110" width="140" height="30" as="geometry" />
        </mxCell>
        <mxCell id="UTym1vw6tCTuyiW-40KR-5" value="Персонажи" style="swimlane;fontStyle=0;childLayout=stackLayout;horizontal=1;startSize=20;horizontalStack=0;resizeParent=1;resizeParentMax=0;resizeLast=0;collapsible=1;marginBottom=0;whiteSpace=wrap;html=1;" parent="WIyWlLk6GJQsqaUBKTNV-1" vertex="1">
          <mxGeometry x="100" y="92.5" width="250" height="140" as="geometry" />
        </mxCell>
        <mxCell id="UTym1vw6tCTuyiW-40KR-6" value="[PK] ID (NUMBER)" style="text;strokeColor=none;fillColor=none;align=left;verticalAlign=middle;spacingLeft=4;spacingRight=4;overflow=hidden;points=[[0,0.5],[1,0.5]];portConstraint=eastwest;rotatable=0;whiteSpace=wrap;html=1;" parent="UTym1vw6tCTuyiW-40KR-5" vertex="1">
          <mxGeometry y="20" width="250" height="30" as="geometry" />
        </mxCell>
        <mxCell id="UTym1vw6tCTuyiW-40KR-7" value="[FK] Имя (VARCHAR2)" style="text;strokeColor=none;fillColor=none;align=left;verticalAlign=middle;spacingLeft=4;spacingRight=4;overflow=hidden;points=[[0,0.5],[1,0.5]];portConstraint=eastwest;rotatable=0;whiteSpace=wrap;html=1;" parent="UTym1vw6tCTuyiW-40KR-5" vertex="1">
          <mxGeometry y="50" width="250" height="30" as="geometry" />
        </mxCell>
        <mxCell id="UTym1vw6tCTuyiW-40KR-8" value="[FK] Владелец персонажа (VARCHAR2)" style="text;strokeColor=none;fillColor=none;align=left;verticalAlign=middle;spacingLeft=4;spacingRight=4;overflow=hidden;points=[[0,0.5],[1,0.5]];portConstraint=eastwest;rotatable=0;whiteSpace=wrap;html=1;" parent="UTym1vw6tCTuyiW-40KR-5" vertex="1">
          <mxGeometry y="80" width="250" height="30" as="geometry" />
        </mxCell>
        <mxCell id="UTym1vw6tCTuyiW-40KR-9" value="Описание (VARCHAR2)" style="text;strokeColor=none;fillColor=none;align=left;verticalAlign=middle;spacingLeft=4;spacingRight=4;overflow=hidden;points=[[0,0.5],[1,0.5]];portConstraint=eastwest;rotatable=0;whiteSpace=wrap;html=1;" parent="UTym1vw6tCTuyiW-40KR-5" vertex="1">
          <mxGeometry y="110" width="250" height="30" as="geometry" />
        </mxCell>
        <mxCell id="UTym1vw6tCTuyiW-40KR-10" value="Сценарии" style="swimlane;fontStyle=0;childLayout=stackLayout;horizontal=1;startSize=20;horizontalStack=0;resizeParent=1;resizeParentMax=0;resizeLast=0;collapsible=1;marginBottom=0;whiteSpace=wrap;html=1;" parent="WIyWlLk6GJQsqaUBKTNV-1" vertex="1">
          <mxGeometry x="144" y="332.5" width="180" height="170" as="geometry" />
        </mxCell>
        <mxCell id="UTym1vw6tCTuyiW-40KR-11" value="[PK] ID (NUMBER)" style="text;strokeColor=none;fillColor=none;align=left;verticalAlign=middle;spacingLeft=4;spacingRight=4;overflow=hidden;points=[[0,0.5],[1,0.5]];portConstraint=eastwest;rotatable=0;whiteSpace=wrap;html=1;" parent="UTym1vw6tCTuyiW-40KR-10" vertex="1">
          <mxGeometry y="20" width="180" height="30" as="geometry" />
        </mxCell>
        <mxCell id="UTym1vw6tCTuyiW-40KR-12" value="[FK] Название (VARCHAR2)" style="text;strokeColor=none;fillColor=none;align=left;verticalAlign=middle;spacingLeft=4;spacingRight=4;overflow=hidden;points=[[0,0.5],[1,0.5]];portConstraint=eastwest;rotatable=0;whiteSpace=wrap;html=1;" parent="UTym1vw6tCTuyiW-40KR-10" vertex="1">
          <mxGeometry y="50" width="180" height="30" as="geometry" />
        </mxCell>
        <mxCell id="UTym1vw6tCTuyiW-40KR-13" value="Описание (VARCHAR2)" style="text;strokeColor=none;fillColor=none;align=left;verticalAlign=middle;spacingLeft=4;spacingRight=4;overflow=hidden;points=[[0,0.5],[1,0.5]];portConstraint=eastwest;rotatable=0;whiteSpace=wrap;html=1;" parent="UTym1vw6tCTuyiW-40KR-10" vertex="1">
          <mxGeometry y="80" width="180" height="30" as="geometry" />
        </mxCell>
        <mxCell id="UTym1vw6tCTuyiW-40KR-14" value="[FK] Сценарист (VARCHAR2)" style="text;strokeColor=none;fillColor=none;align=left;verticalAlign=middle;spacingLeft=4;spacingRight=4;overflow=hidden;points=[[0,0.5],[1,0.5]];portConstraint=eastwest;rotatable=0;whiteSpace=wrap;html=1;" parent="UTym1vw6tCTuyiW-40KR-10" vertex="1">
          <mxGeometry y="110" width="180" height="30" as="geometry" />
        </mxCell>
        <mxCell id="UTym1vw6tCTuyiW-40KR-15" value="[FK] Игра (VARCHAR2)" style="text;strokeColor=none;fillColor=none;align=left;verticalAlign=middle;spacingLeft=4;spacingRight=4;overflow=hidden;points=[[0,0.5],[1,0.5]];portConstraint=eastwest;rotatable=0;whiteSpace=wrap;html=1;" parent="UTym1vw6tCTuyiW-40KR-10" vertex="1">
          <mxGeometry y="140" width="180" height="30" as="geometry" />
        </mxCell>
        <mxCell id="UTym1vw6tCTuyiW-40KR-16" value="События" style="swimlane;fontStyle=0;childLayout=stackLayout;horizontal=1;startSize=20;horizontalStack=0;resizeParent=1;resizeParentMax=0;resizeLast=0;collapsible=1;marginBottom=0;whiteSpace=wrap;html=1;strokeColor=default;rounded=0;shadow=0;glass=0;gradientColor=none;swimlaneFillColor=none;" parent="WIyWlLk6GJQsqaUBKTNV-1" vertex="1">
          <mxGeometry x="1250" y="522.5" width="190" height="170" as="geometry">
            <mxRectangle x="630" y="585" width="90" height="30" as="alternateBounds" />
          </mxGeometry>
        </mxCell>
        <mxCell id="UTym1vw6tCTuyiW-40KR-17" value="[PK] ID (NUMBER)" style="text;strokeColor=none;fillColor=none;align=left;verticalAlign=middle;spacingLeft=4;spacingRight=4;overflow=hidden;points=[[0,0.5],[1,0.5]];portConstraint=eastwest;rotatable=0;whiteSpace=wrap;html=1;" parent="UTym1vw6tCTuyiW-40KR-16" vertex="1">
          <mxGeometry y="20" width="190" height="30" as="geometry" />
        </mxCell>
        <mxCell id="UTym1vw6tCTuyiW-40KR-18" value="[FK] Локация (VARCHAR2)" style="text;strokeColor=none;fillColor=none;align=left;verticalAlign=middle;spacingLeft=4;spacingRight=4;overflow=hidden;points=[[0,0.5],[1,0.5]];portConstraint=eastwest;rotatable=0;whiteSpace=wrap;html=1;" parent="UTym1vw6tCTuyiW-40KR-16" vertex="1">
          <mxGeometry y="50" width="190" height="30" as="geometry" />
        </mxCell>
        <mxCell id="UTym1vw6tCTuyiW-40KR-19" value="Название (VARCHAR2)" style="text;strokeColor=none;fillColor=none;align=left;verticalAlign=middle;spacingLeft=4;spacingRight=4;overflow=hidden;points=[[0,0.5],[1,0.5]];portConstraint=eastwest;rotatable=0;whiteSpace=wrap;html=1;" parent="UTym1vw6tCTuyiW-40KR-16" vertex="1">
          <mxGeometry y="80" width="190" height="30" as="geometry" />
        </mxCell>
        <mxCell id="UTym1vw6tCTuyiW-40KR-20" value="Описание (VARCHAR2)" style="text;strokeColor=none;fillColor=none;align=left;verticalAlign=middle;spacingLeft=4;spacingRight=4;overflow=hidden;points=[[0,0.5],[1,0.5]];portConstraint=eastwest;rotatable=0;whiteSpace=wrap;html=1;" parent="UTym1vw6tCTuyiW-40KR-16" vertex="1">
          <mxGeometry y="110" width="190" height="30" as="geometry" />
        </mxCell>
        <mxCell id="UTym1vw6tCTuyiW-40KR-21" value="[FK] Разработчик (VARCHAR2)" style="text;strokeColor=none;fillColor=none;align=left;verticalAlign=middle;spacingLeft=4;spacingRight=4;overflow=hidden;points=[[0,0.5],[1,0.5]];portConstraint=eastwest;rotatable=0;whiteSpace=wrap;html=1;" parent="UTym1vw6tCTuyiW-40KR-16" vertex="1">
          <mxGeometry y="140" width="190" height="30" as="geometry" />
        </mxCell>
        <mxCell id="UTym1vw6tCTuyiW-40KR-22" value="Локации" style="swimlane;fontStyle=0;childLayout=stackLayout;horizontal=1;startSize=20;horizontalStack=0;resizeParent=1;resizeParentMax=0;resizeLast=0;collapsible=1;marginBottom=0;whiteSpace=wrap;html=1;" parent="WIyWlLk6GJQsqaUBKTNV-1" vertex="1">
          <mxGeometry x="960" y="522.5" width="190" height="140" as="geometry" />
        </mxCell>
        <mxCell id="UTym1vw6tCTuyiW-40KR-23" value="[PK] ID (NUMBER)" style="text;strokeColor=none;fillColor=none;align=left;verticalAlign=middle;spacingLeft=4;spacingRight=4;overflow=hidden;points=[[0,0.5],[1,0.5]];portConstraint=eastwest;rotatable=0;whiteSpace=wrap;html=1;" parent="UTym1vw6tCTuyiW-40KR-22" vertex="1">
          <mxGeometry y="20" width="190" height="30" as="geometry" />
        </mxCell>
        <mxCell id="UTym1vw6tCTuyiW-40KR-24" value="[FK] Название (VARCHAR2)" style="text;strokeColor=none;fillColor=none;align=left;verticalAlign=middle;spacingLeft=4;spacingRight=4;overflow=hidden;points=[[0,0.5],[1,0.5]];portConstraint=eastwest;rotatable=0;whiteSpace=wrap;html=1;" parent="UTym1vw6tCTuyiW-40KR-22" vertex="1">
          <mxGeometry y="50" width="190" height="30" as="geometry" />
        </mxCell>
        <mxCell id="UTym1vw6tCTuyiW-40KR-25" value="Описание (VARCHAR2)" style="text;strokeColor=none;fillColor=none;align=left;verticalAlign=middle;spacingLeft=4;spacingRight=4;overflow=hidden;points=[[0,0.5],[1,0.5]];portConstraint=eastwest;rotatable=0;whiteSpace=wrap;html=1;" parent="UTym1vw6tCTuyiW-40KR-22" vertex="1">
          <mxGeometry y="80" width="190" height="30" as="geometry" />
        </mxCell>
        <mxCell id="UTym1vw6tCTuyiW-40KR-26" value="[FK] Разработчик (VAARCHAR2)" style="text;strokeColor=none;fillColor=none;align=left;verticalAlign=middle;spacingLeft=4;spacingRight=4;overflow=hidden;points=[[0,0.5],[1,0.5]];portConstraint=eastwest;rotatable=0;whiteSpace=wrap;html=1;" parent="UTym1vw6tCTuyiW-40KR-22" vertex="1">
          <mxGeometry y="110" width="190" height="30" as="geometry" />
        </mxCell>
        <mxCell id="UTym1vw6tCTuyiW-40KR-27" value="Прогресс игроков в заданиях" style="swimlane;fontStyle=0;childLayout=stackLayout;horizontal=1;startSize=30;horizontalStack=0;resizeParent=1;resizeParentMax=0;resizeLast=0;collapsible=1;marginBottom=0;whiteSpace=wrap;html=1;" parent="WIyWlLk6GJQsqaUBKTNV-1" vertex="1">
          <mxGeometry x="700" y="642.5" width="170" height="150" as="geometry" />
        </mxCell>
        <mxCell id="UTym1vw6tCTuyiW-40KR-28" value="[PK] ID (NUMBER)" style="text;strokeColor=none;fillColor=none;align=left;verticalAlign=middle;spacingLeft=4;spacingRight=4;overflow=hidden;points=[[0,0.5],[1,0.5]];portConstraint=eastwest;rotatable=0;whiteSpace=wrap;html=1;" parent="UTym1vw6tCTuyiW-40KR-27" vertex="1">
          <mxGeometry y="30" width="170" height="30" as="geometry" />
        </mxCell>
        <mxCell id="UTym1vw6tCTuyiW-40KR-29" value="[FK] Игрок (VARCHAR2)" style="text;strokeColor=none;fillColor=none;align=left;verticalAlign=middle;spacingLeft=4;spacingRight=4;overflow=hidden;points=[[0,0.5],[1,0.5]];portConstraint=eastwest;rotatable=0;whiteSpace=wrap;html=1;" parent="UTym1vw6tCTuyiW-40KR-27" vertex="1">
          <mxGeometry y="60" width="170" height="30" as="geometry" />
        </mxCell>
        <mxCell id="UTym1vw6tCTuyiW-40KR-30" value="[FK] Задание (VARCHAR2)" style="text;strokeColor=none;fillColor=none;align=left;verticalAlign=middle;spacingLeft=4;spacingRight=4;overflow=hidden;points=[[0,0.5],[1,0.5]];portConstraint=eastwest;rotatable=0;whiteSpace=wrap;html=1;" parent="UTym1vw6tCTuyiW-40KR-27" vertex="1">
          <mxGeometry y="90" width="170" height="30" as="geometry" />
        </mxCell>
        <mxCell id="UTym1vw6tCTuyiW-40KR-31" value="Завершено (VARCHAR2)" style="text;strokeColor=none;fillColor=none;align=left;verticalAlign=middle;spacingLeft=4;spacingRight=4;overflow=hidden;points=[[0,0.5],[1,0.5]];portConstraint=eastwest;rotatable=0;whiteSpace=wrap;html=1;" parent="UTym1vw6tCTuyiW-40KR-27" vertex="1">
          <mxGeometry y="120" width="170" height="30" as="geometry" />
        </mxCell>
        <mxCell id="UTym1vw6tCTuyiW-40KR-32" value="Задания" style="swimlane;fontStyle=0;childLayout=stackLayout;horizontal=1;startSize=20;horizontalStack=0;resizeParent=1;resizeParentMax=0;resizeLast=0;collapsible=1;marginBottom=0;whiteSpace=wrap;html=1;" parent="WIyWlLk6GJQsqaUBKTNV-1" vertex="1">
          <mxGeometry x="230" y="792.5" width="180" height="200" as="geometry" />
        </mxCell>
        <mxCell id="UTym1vw6tCTuyiW-40KR-33" value="[PK] ID (NUMBER)" style="text;strokeColor=none;fillColor=none;align=left;verticalAlign=middle;spacingLeft=4;spacingRight=4;overflow=hidden;points=[[0,0.5],[1,0.5]];portConstraint=eastwest;rotatable=0;whiteSpace=wrap;html=1;" parent="UTym1vw6tCTuyiW-40KR-32" vertex="1">
          <mxGeometry y="20" width="180" height="30" as="geometry" />
        </mxCell>
        <mxCell id="UTym1vw6tCTuyiW-40KR-34" value="[FK] Название (VARCHAR2)" style="text;strokeColor=none;fillColor=none;align=left;verticalAlign=middle;spacingLeft=4;spacingRight=4;overflow=hidden;points=[[0,0.5],[1,0.5]];portConstraint=eastwest;rotatable=0;whiteSpace=wrap;html=1;" parent="UTym1vw6tCTuyiW-40KR-32" vertex="1">
          <mxGeometry y="50" width="180" height="30" as="geometry" />
        </mxCell>
        <mxCell id="UTym1vw6tCTuyiW-40KR-35" value="Описание (VARCHAR2)" style="text;strokeColor=none;fillColor=none;align=left;verticalAlign=middle;spacingLeft=4;spacingRight=4;overflow=hidden;points=[[0,0.5],[1,0.5]];portConstraint=eastwest;rotatable=0;whiteSpace=wrap;html=1;" parent="UTym1vw6tCTuyiW-40KR-32" vertex="1">
          <mxGeometry y="80" width="180" height="30" as="geometry" />
        </mxCell>
        <mxCell id="UTym1vw6tCTuyiW-40KR-36" value="Награда (VARCHAR2)" style="text;strokeColor=none;fillColor=none;align=left;verticalAlign=middle;spacingLeft=4;spacingRight=4;overflow=hidden;points=[[0,0.5],[1,0.5]];portConstraint=eastwest;rotatable=0;whiteSpace=wrap;html=1;" parent="UTym1vw6tCTuyiW-40KR-32" vertex="1">
          <mxGeometry y="110" width="180" height="30" as="geometry" />
        </mxCell>
        <mxCell id="UTym1vw6tCTuyiW-40KR-37" value="[FK] Сценарий (VARCHAR2)" style="text;strokeColor=none;fillColor=none;align=left;verticalAlign=middle;spacingLeft=4;spacingRight=4;overflow=hidden;points=[[0,0.5],[1,0.5]];portConstraint=eastwest;rotatable=0;whiteSpace=wrap;html=1;" parent="UTym1vw6tCTuyiW-40KR-32" vertex="1">
          <mxGeometry y="140" width="180" height="30" as="geometry" />
        </mxCell>
        <mxCell id="UTym1vw6tCTuyiW-40KR-38" value="[FK] Локация (VARCHAR2)" style="text;strokeColor=none;fillColor=none;align=left;verticalAlign=middle;spacingLeft=4;spacingRight=4;overflow=hidden;points=[[0,0.5],[1,0.5]];portConstraint=eastwest;rotatable=0;whiteSpace=wrap;html=1;" parent="UTym1vw6tCTuyiW-40KR-32" vertex="1">
          <mxGeometry y="170" width="180" height="30" as="geometry" />
        </mxCell>
        <mxCell id="UTym1vw6tCTuyiW-40KR-39" value="Инвентарь персонажа" style="swimlane;fontStyle=0;childLayout=stackLayout;horizontal=1;startSize=20;horizontalStack=0;resizeParent=1;resizeParentMax=0;resizeLast=0;collapsible=1;marginBottom=0;whiteSpace=wrap;html=1;" parent="WIyWlLk6GJQsqaUBKTNV-1" vertex="1">
          <mxGeometry x="830" y="160" width="180" height="140" as="geometry" />
        </mxCell>
        <mxCell id="UTym1vw6tCTuyiW-40KR-40" value="[PK] ID (NUMBER)" style="text;strokeColor=none;fillColor=none;align=left;verticalAlign=middle;spacingLeft=4;spacingRight=4;overflow=hidden;points=[[0,0.5],[1,0.5]];portConstraint=eastwest;rotatable=0;whiteSpace=wrap;html=1;" parent="UTym1vw6tCTuyiW-40KR-39" vertex="1">
          <mxGeometry y="20" width="180" height="30" as="geometry" />
        </mxCell>
        <mxCell id="UTym1vw6tCTuyiW-40KR-41" value="[FK] Персонаж (VARCHAR2)" style="text;strokeColor=none;fillColor=none;align=left;verticalAlign=middle;spacingLeft=4;spacingRight=4;overflow=hidden;points=[[0,0.5],[1,0.5]];portConstraint=eastwest;rotatable=0;whiteSpace=wrap;html=1;" parent="UTym1vw6tCTuyiW-40KR-39" vertex="1">
          <mxGeometry y="50" width="180" height="30" as="geometry" />
        </mxCell>
        <mxCell id="UTym1vw6tCTuyiW-40KR-42" value="Название (VARCHAR2)" style="text;strokeColor=none;fillColor=none;align=left;verticalAlign=middle;spacingLeft=4;spacingRight=4;overflow=hidden;points=[[0,0.5],[1,0.5]];portConstraint=eastwest;rotatable=0;whiteSpace=wrap;html=1;" parent="UTym1vw6tCTuyiW-40KR-39" vertex="1">
          <mxGeometry y="80" width="180" height="30" as="geometry" />
        </mxCell>
        <mxCell id="UTym1vw6tCTuyiW-40KR-43" value="Количество (NUMBER)" style="text;strokeColor=none;fillColor=none;align=left;verticalAlign=middle;spacingLeft=4;spacingRight=4;overflow=hidden;points=[[0,0.5],[1,0.5]];portConstraint=eastwest;rotatable=0;whiteSpace=wrap;html=1;" parent="UTym1vw6tCTuyiW-40KR-39" vertex="1">
          <mxGeometry y="110" width="180" height="30" as="geometry" />
        </mxCell>
        <mxCell id="UTym1vw6tCTuyiW-40KR-44" style="edgeStyle=orthogonalEdgeStyle;rounded=0;orthogonalLoop=1;jettySize=auto;html=1;entryX=1;entryY=0.5;entryDx=0;entryDy=0;startArrow=ERmany;startFill=0;endArrow=none;endFill=0;" parent="WIyWlLk6GJQsqaUBKTNV-1" source="UTym1vw6tCTuyiW-40KR-29" target="UTym1vw6tCTuyiW-40KR-2" edge="1">
          <mxGeometry relative="1" as="geometry" />
        </mxCell>
        <mxCell id="UTym1vw6tCTuyiW-40KR-45" style="edgeStyle=orthogonalEdgeStyle;rounded=0;orthogonalLoop=1;jettySize=auto;html=1;entryX=1;entryY=0.5;entryDx=0;entryDy=0;startArrow=ERmany;startFill=0;endArrow=none;endFill=0;" parent="WIyWlLk6GJQsqaUBKTNV-1" source="UTym1vw6tCTuyiW-40KR-30" target="UTym1vw6tCTuyiW-40KR-34" edge="1">
          <mxGeometry relative="1" as="geometry" />
        </mxCell>
        <mxCell id="UTym1vw6tCTuyiW-40KR-46" style="edgeStyle=orthogonalEdgeStyle;rounded=0;orthogonalLoop=1;jettySize=auto;html=1;entryX=1;entryY=0.5;entryDx=0;entryDy=0;startArrow=ERmany;startFill=0;endArrow=none;endFill=0;" parent="WIyWlLk6GJQsqaUBKTNV-1" source="UTym1vw6tCTuyiW-40KR-18" target="UTym1vw6tCTuyiW-40KR-24" edge="1">
          <mxGeometry relative="1" as="geometry" />
        </mxCell>
        <mxCell id="UTym1vw6tCTuyiW-40KR-47" style="edgeStyle=orthogonalEdgeStyle;rounded=0;orthogonalLoop=1;jettySize=auto;html=1;entryX=0;entryY=0.5;entryDx=0;entryDy=0;startArrow=ERmany;startFill=0;endArrow=none;endFill=0;" parent="WIyWlLk6GJQsqaUBKTNV-1" source="UTym1vw6tCTuyiW-40KR-37" target="UTym1vw6tCTuyiW-40KR-12" edge="1">
          <mxGeometry relative="1" as="geometry" />
        </mxCell>
        <mxCell id="UTym1vw6tCTuyiW-40KR-48" style="edgeStyle=orthogonalEdgeStyle;rounded=0;orthogonalLoop=1;jettySize=auto;html=1;entryX=0;entryY=0.5;entryDx=0;entryDy=0;startArrow=ERmany;startFill=0;endArrow=none;endFill=0;" parent="WIyWlLk6GJQsqaUBKTNV-1" source="UTym1vw6tCTuyiW-40KR-38" target="UTym1vw6tCTuyiW-40KR-24" edge="1">
          <mxGeometry relative="1" as="geometry">
            <Array as="points">
              <mxPoint x="910" y="978" />
              <mxPoint x="910" y="588" />
            </Array>
          </mxGeometry>
        </mxCell>
        <mxCell id="UTym1vw6tCTuyiW-40KR-49" value="Бизнес план продвижения" style="swimlane;fontStyle=0;childLayout=stackLayout;horizontal=1;startSize=30;horizontalStack=0;resizeParent=1;resizeParentMax=0;resizeLast=0;collapsible=1;marginBottom=0;whiteSpace=wrap;html=1;" parent="WIyWlLk6GJQsqaUBKTNV-1" vertex="1">
          <mxGeometry x="2751" y="180" width="369" height="270" as="geometry" />
        </mxCell>
        <mxCell id="UTym1vw6tCTuyiW-40KR-50" value="[PK] Идентификатор задачи (NUMBER)" style="text;strokeColor=none;fillColor=none;align=left;verticalAlign=middle;spacingLeft=4;spacingRight=4;overflow=hidden;points=[[0,0.5],[1,0.5]];portConstraint=eastwest;rotatable=0;whiteSpace=wrap;html=1;" parent="UTym1vw6tCTuyiW-40KR-49" vertex="1">
          <mxGeometry y="30" width="369" height="30" as="geometry" />
        </mxCell>
        <mxCell id="UTym1vw6tCTuyiW-40KR-51" value="Название задачи (VARCHAR2)" style="text;strokeColor=none;fillColor=none;align=left;verticalAlign=middle;spacingLeft=4;spacingRight=4;overflow=hidden;points=[[0,0.5],[1,0.5]];portConstraint=eastwest;rotatable=0;whiteSpace=wrap;html=1;" parent="UTym1vw6tCTuyiW-40KR-49" vertex="1">
          <mxGeometry y="60" width="369" height="30" as="geometry" />
        </mxCell>
        <mxCell id="UTym1vw6tCTuyiW-40KR-52" value="Описание задачи (VARCHAR2)" style="text;strokeColor=none;fillColor=none;align=left;verticalAlign=middle;spacingLeft=4;spacingRight=4;overflow=hidden;points=[[0,0.5],[1,0.5]];portConstraint=eastwest;rotatable=0;whiteSpace=wrap;html=1;" parent="UTym1vw6tCTuyiW-40KR-49" vertex="1">
          <mxGeometry y="90" width="369" height="30" as="geometry" />
        </mxCell>
        <mxCell id="UTym1vw6tCTuyiW-40KR-53" value="[FK] Идентификатор целевой аудитории (NUMBER)" style="text;strokeColor=none;fillColor=none;align=left;verticalAlign=middle;spacingLeft=4;spacingRight=4;overflow=hidden;points=[[0,0.5],[1,0.5]];portConstraint=eastwest;rotatable=0;whiteSpace=wrap;html=1;" parent="UTym1vw6tCTuyiW-40KR-49" vertex="1">
          <mxGeometry y="120" width="369" height="30" as="geometry" />
        </mxCell>
        <mxCell id="UTym1vw6tCTuyiW-40KR-54" value="[FK] Идентификатор канала продвижения (NUMBER)" style="text;strokeColor=none;fillColor=none;align=left;verticalAlign=middle;spacingLeft=4;spacingRight=4;overflow=hidden;points=[[0,0.5],[1,0.5]];portConstraint=eastwest;rotatable=0;whiteSpace=wrap;html=1;" parent="UTym1vw6tCTuyiW-40KR-49" vertex="1">
          <mxGeometry y="150" width="369" height="30" as="geometry" />
        </mxCell>
        <mxCell id="UTym1vw6tCTuyiW-40KR-55" value="[FK] Анализ рынка (NUMBER)" style="text;strokeColor=none;fillColor=none;align=left;verticalAlign=middle;spacingLeft=4;spacingRight=4;overflow=hidden;points=[[0,0.5],[1,0.5]];portConstraint=eastwest;rotatable=0;whiteSpace=wrap;html=1;" parent="UTym1vw6tCTuyiW-40KR-49" vertex="1">
          <mxGeometry y="180" width="369" height="30" as="geometry" />
        </mxCell>
        <mxCell id="UTym1vw6tCTuyiW-40KR-56" value="[FK] Ответственные сотрудники (VARCHAR2)" style="text;strokeColor=none;fillColor=none;align=left;verticalAlign=middle;spacingLeft=4;spacingRight=4;overflow=hidden;points=[[0,0.5],[1,0.5]];portConstraint=eastwest;rotatable=0;whiteSpace=wrap;html=1;" parent="UTym1vw6tCTuyiW-40KR-49" vertex="1">
          <mxGeometry y="210" width="369" height="30" as="geometry" />
        </mxCell>
        <mxCell id="gxO7_qetUmRc-j9wjkT1-2" value="[FK] Идентификатор продукта" style="text;strokeColor=none;fillColor=none;align=left;verticalAlign=middle;spacingLeft=4;spacingRight=4;overflow=hidden;points=[[0,0.5],[1,0.5]];portConstraint=eastwest;rotatable=0;whiteSpace=wrap;html=1;" vertex="1" parent="UTym1vw6tCTuyiW-40KR-49">
          <mxGeometry y="240" width="369" height="30" as="geometry" />
        </mxCell>
        <mxCell id="UTym1vw6tCTuyiW-40KR-57" value="Целевая аудитория" style="swimlane;fontStyle=0;childLayout=stackLayout;horizontal=1;startSize=30;horizontalStack=0;resizeParent=1;resizeParentMax=0;resizeLast=0;collapsible=1;marginBottom=0;whiteSpace=wrap;html=1;" parent="WIyWlLk6GJQsqaUBKTNV-1" vertex="1">
          <mxGeometry x="3321" y="130" width="299" height="120" as="geometry" />
        </mxCell>
        <mxCell id="UTym1vw6tCTuyiW-40KR-58" value="[PK] Идентификатор целевой аудитории (NUMBER)" style="text;strokeColor=none;fillColor=none;align=left;verticalAlign=middle;spacingLeft=4;spacingRight=4;overflow=hidden;points=[[0,0.5],[1,0.5]];portConstraint=eastwest;rotatable=0;whiteSpace=wrap;html=1;" parent="UTym1vw6tCTuyiW-40KR-57" vertex="1">
          <mxGeometry y="30" width="299" height="30" as="geometry" />
        </mxCell>
        <mxCell id="UTym1vw6tCTuyiW-40KR-59" value="Название целевой аудитории (VARCHAR2)" style="text;strokeColor=none;fillColor=none;align=left;verticalAlign=middle;spacingLeft=4;spacingRight=4;overflow=hidden;points=[[0,0.5],[1,0.5]];portConstraint=eastwest;rotatable=0;whiteSpace=wrap;html=1;" parent="UTym1vw6tCTuyiW-40KR-57" vertex="1">
          <mxGeometry y="60" width="299" height="30" as="geometry" />
        </mxCell>
        <mxCell id="UTym1vw6tCTuyiW-40KR-60" value="Описание целевой аудитории (VARCHAR2)" style="text;strokeColor=none;fillColor=none;align=left;verticalAlign=middle;spacingLeft=4;spacingRight=4;overflow=hidden;points=[[0,0.5],[1,0.5]];portConstraint=eastwest;rotatable=0;whiteSpace=wrap;html=1;" parent="UTym1vw6tCTuyiW-40KR-57" vertex="1">
          <mxGeometry y="90" width="299" height="30" as="geometry" />
        </mxCell>
        <mxCell id="UTym1vw6tCTuyiW-40KR-61" value="Каналы продвижения" style="swimlane;fontStyle=0;childLayout=stackLayout;horizontal=1;startSize=30;horizontalStack=0;resizeParent=1;resizeParentMax=0;resizeLast=0;collapsible=1;marginBottom=0;whiteSpace=wrap;html=1;" parent="WIyWlLk6GJQsqaUBKTNV-1" vertex="1">
          <mxGeometry x="3451" y="300" width="369" height="180" as="geometry" />
        </mxCell>
        <mxCell id="UTym1vw6tCTuyiW-40KR-62" value="[PK] Идентификатор канала продвижения (NUMBER)" style="text;strokeColor=none;fillColor=none;align=left;verticalAlign=middle;spacingLeft=4;spacingRight=4;overflow=hidden;points=[[0,0.5],[1,0.5]];portConstraint=eastwest;rotatable=0;whiteSpace=wrap;html=1;" parent="UTym1vw6tCTuyiW-40KR-61" vertex="1">
          <mxGeometry y="30" width="369" height="30" as="geometry" />
        </mxCell>
        <mxCell id="UTym1vw6tCTuyiW-40KR-63" value="Название канала продвижения (VARCHAR2)" style="text;strokeColor=none;fillColor=none;align=left;verticalAlign=middle;spacingLeft=4;spacingRight=4;overflow=hidden;points=[[0,0.5],[1,0.5]];portConstraint=eastwest;rotatable=0;whiteSpace=wrap;html=1;" parent="UTym1vw6tCTuyiW-40KR-61" vertex="1">
          <mxGeometry y="60" width="369" height="30" as="geometry" />
        </mxCell>
        <mxCell id="UTym1vw6tCTuyiW-40KR-64" value="Описание канала продвижения (VARCHAR2)" style="text;strokeColor=none;fillColor=none;align=left;verticalAlign=middle;spacingLeft=4;spacingRight=4;overflow=hidden;points=[[0,0.5],[1,0.5]];portConstraint=eastwest;rotatable=0;whiteSpace=wrap;html=1;" parent="UTym1vw6tCTuyiW-40KR-61" vertex="1">
          <mxGeometry y="90" width="369" height="30" as="geometry" />
        </mxCell>
        <mxCell id="UTym1vw6tCTuyiW-40KR-65" value="[FK] Бюджет канала продвижения (DATE)" style="text;strokeColor=none;fillColor=none;align=left;verticalAlign=middle;spacingLeft=4;spacingRight=4;overflow=hidden;points=[[0,0.5],[1,0.5]];portConstraint=eastwest;rotatable=0;whiteSpace=wrap;html=1;" parent="UTym1vw6tCTuyiW-40KR-61" vertex="1">
          <mxGeometry y="120" width="369" height="30" as="geometry" />
        </mxCell>
        <mxCell id="UTym1vw6tCTuyiW-40KR-66" value="[FK] Сотрудник занимающийся продвижением (VARCHAR2)" style="text;strokeColor=none;fillColor=none;align=left;verticalAlign=middle;spacingLeft=4;spacingRight=4;overflow=hidden;points=[[0,0.5],[1,0.5]];portConstraint=eastwest;rotatable=0;whiteSpace=wrap;html=1;" parent="UTym1vw6tCTuyiW-40KR-61" vertex="1">
          <mxGeometry y="150" width="369" height="30" as="geometry" />
        </mxCell>
        <mxCell id="UTym1vw6tCTuyiW-40KR-67" value="Рыночные исследования" style="swimlane;fontStyle=0;childLayout=stackLayout;horizontal=1;startSize=30;horizontalStack=0;resizeParent=1;resizeParentMax=0;resizeLast=0;collapsible=1;marginBottom=0;whiteSpace=wrap;html=1;" parent="WIyWlLk6GJQsqaUBKTNV-1" vertex="1">
          <mxGeometry x="2790" y="560" width="360" height="180" as="geometry" />
        </mxCell>
        <mxCell id="UTym1vw6tCTuyiW-40KR-68" value="[PK] Идентификатор раночного исследования (NUMBER)" style="text;strokeColor=none;fillColor=none;align=left;verticalAlign=middle;spacingLeft=4;spacingRight=4;overflow=hidden;points=[[0,0.5],[1,0.5]];portConstraint=eastwest;rotatable=0;whiteSpace=wrap;html=1;" parent="UTym1vw6tCTuyiW-40KR-67" vertex="1">
          <mxGeometry y="30" width="360" height="30" as="geometry" />
        </mxCell>
        <mxCell id="UTym1vw6tCTuyiW-40KR-69" value="Тема рыночного исследования (VARCHAR2)" style="text;strokeColor=none;fillColor=none;align=left;verticalAlign=middle;spacingLeft=4;spacingRight=4;overflow=hidden;points=[[0,0.5],[1,0.5]];portConstraint=eastwest;rotatable=0;whiteSpace=wrap;html=1;" parent="UTym1vw6tCTuyiW-40KR-67" vertex="1">
          <mxGeometry y="60" width="360" height="30" as="geometry" />
        </mxCell>
        <mxCell id="UTym1vw6tCTuyiW-40KR-70" value="Анализ рыночного исследования (VARCHAR2)" style="text;strokeColor=none;fillColor=none;align=left;verticalAlign=middle;spacingLeft=4;spacingRight=4;overflow=hidden;points=[[0,0.5],[1,0.5]];portConstraint=eastwest;rotatable=0;whiteSpace=wrap;html=1;" parent="UTym1vw6tCTuyiW-40KR-67" vertex="1">
          <mxGeometry y="90" width="360" height="30" as="geometry" />
        </mxCell>
        <mxCell id="UTym1vw6tCTuyiW-40KR-71" value="Дата проведения рыночного исследования (DATE)" style="text;strokeColor=none;fillColor=none;align=left;verticalAlign=middle;spacingLeft=4;spacingRight=4;overflow=hidden;points=[[0,0.5],[1,0.5]];portConstraint=eastwest;rotatable=0;whiteSpace=wrap;html=1;" parent="UTym1vw6tCTuyiW-40KR-67" vertex="1">
          <mxGeometry y="120" width="360" height="30" as="geometry" />
        </mxCell>
        <mxCell id="UTym1vw6tCTuyiW-40KR-72" value="[FK] Сотрудник проведший анализ (VARCHAR2)" style="text;strokeColor=none;fillColor=none;align=left;verticalAlign=middle;spacingLeft=4;spacingRight=4;overflow=hidden;points=[[0,0.5],[1,0.5]];portConstraint=eastwest;rotatable=0;whiteSpace=wrap;html=1;" parent="UTym1vw6tCTuyiW-40KR-67" vertex="1">
          <mxGeometry y="150" width="360" height="30" as="geometry" />
        </mxCell>
        <mxCell id="UTym1vw6tCTuyiW-40KR-73" value="Счета" style="swimlane;fontStyle=0;childLayout=stackLayout;horizontal=1;startSize=30;horizontalStack=0;resizeParent=1;resizeParentMax=0;resizeLast=0;collapsible=1;marginBottom=0;whiteSpace=wrap;html=1;" parent="WIyWlLk6GJQsqaUBKTNV-1" vertex="1">
          <mxGeometry x="440" y="1520" width="280" height="210" as="geometry" />
        </mxCell>
        <mxCell id="UTym1vw6tCTuyiW-40KR-74" value="[PK] Идентификатор счета (NUMBER)" style="text;strokeColor=none;fillColor=none;align=left;verticalAlign=middle;spacingLeft=4;spacingRight=4;overflow=hidden;points=[[0,0.5],[1,0.5]];portConstraint=eastwest;rotatable=0;whiteSpace=wrap;html=1;" parent="UTym1vw6tCTuyiW-40KR-73" vertex="1">
          <mxGeometry y="30" width="280" height="30" as="geometry" />
        </mxCell>
        <mxCell id="UTym1vw6tCTuyiW-40KR-75" value="[FK] Наименование счета (VARCHAR2)" style="text;strokeColor=none;fillColor=none;align=left;verticalAlign=middle;spacingLeft=4;spacingRight=4;overflow=hidden;points=[[0,0.5],[1,0.5]];portConstraint=eastwest;rotatable=0;whiteSpace=wrap;html=1;" parent="UTym1vw6tCTuyiW-40KR-73" vertex="1">
          <mxGeometry y="60" width="280" height="30" as="geometry" />
        </mxCell>
        <mxCell id="UTym1vw6tCTuyiW-40KR-76" value="Тип счета (VARCHAR2)" style="text;strokeColor=none;fillColor=none;align=left;verticalAlign=middle;spacingLeft=4;spacingRight=4;overflow=hidden;points=[[0,0.5],[1,0.5]];portConstraint=eastwest;rotatable=0;whiteSpace=wrap;html=1;" parent="UTym1vw6tCTuyiW-40KR-73" vertex="1">
          <mxGeometry y="90" width="280" height="30" as="geometry" />
        </mxCell>
        <mxCell id="UTym1vw6tCTuyiW-40KR-77" value="Баланс счета (FLOAT)" style="text;strokeColor=none;fillColor=none;align=left;verticalAlign=middle;spacingLeft=4;spacingRight=4;overflow=hidden;points=[[0,0.5],[1,0.5]];portConstraint=eastwest;rotatable=0;whiteSpace=wrap;html=1;" parent="UTym1vw6tCTuyiW-40KR-73" vertex="1">
          <mxGeometry y="120" width="280" height="30" as="geometry" />
        </mxCell>
        <mxCell id="UTym1vw6tCTuyiW-40KR-78" value="[FK] Ответственный сотрудник (VARCHAR2)" style="text;strokeColor=none;fillColor=none;align=left;verticalAlign=middle;spacingLeft=4;spacingRight=4;overflow=hidden;points=[[0,0.5],[1,0.5]];portConstraint=eastwest;rotatable=0;whiteSpace=wrap;html=1;" parent="UTym1vw6tCTuyiW-40KR-73" vertex="1">
          <mxGeometry y="150" width="280" height="30" as="geometry" />
        </mxCell>
        <mxCell id="UTym1vw6tCTuyiW-40KR-79" value="[FK] Банк (VARCHAR2)" style="text;strokeColor=none;fillColor=none;align=left;verticalAlign=middle;spacingLeft=4;spacingRight=4;overflow=hidden;points=[[0,0.5],[1,0.5]];portConstraint=eastwest;rotatable=0;whiteSpace=wrap;html=1;" parent="UTym1vw6tCTuyiW-40KR-73" vertex="1">
          <mxGeometry y="180" width="280" height="30" as="geometry" />
        </mxCell>
        <mxCell id="UTym1vw6tCTuyiW-40KR-80" value="Банки" style="swimlane;fontStyle=0;childLayout=stackLayout;horizontal=1;startSize=30;horizontalStack=0;resizeParent=1;resizeParentMax=0;resizeLast=0;collapsible=1;marginBottom=0;whiteSpace=wrap;html=1;" parent="WIyWlLk6GJQsqaUBKTNV-1" vertex="1">
          <mxGeometry x="450" y="1830" width="240" height="180" as="geometry" />
        </mxCell>
        <mxCell id="UTym1vw6tCTuyiW-40KR-81" value="[PK] Идентификатор банка (NUMBER)" style="text;strokeColor=none;fillColor=none;align=left;verticalAlign=middle;spacingLeft=4;spacingRight=4;overflow=hidden;points=[[0,0.5],[1,0.5]];portConstraint=eastwest;rotatable=0;whiteSpace=wrap;html=1;" parent="UTym1vw6tCTuyiW-40KR-80" vertex="1">
          <mxGeometry y="30" width="240" height="30" as="geometry" />
        </mxCell>
        <mxCell id="UTym1vw6tCTuyiW-40KR-82" value="[FK] Наименование банка (VARCHAR2)" style="text;strokeColor=none;fillColor=none;align=left;verticalAlign=middle;spacingLeft=4;spacingRight=4;overflow=hidden;points=[[0,0.5],[1,0.5]];portConstraint=eastwest;rotatable=0;whiteSpace=wrap;html=1;" parent="UTym1vw6tCTuyiW-40KR-80" vertex="1">
          <mxGeometry y="60" width="240" height="30" as="geometry" />
        </mxCell>
        <mxCell id="UTym1vw6tCTuyiW-40KR-83" value="Филиал (VARCHAR2)" style="text;strokeColor=none;fillColor=none;align=left;verticalAlign=middle;spacingLeft=4;spacingRight=4;overflow=hidden;points=[[0,0.5],[1,0.5]];portConstraint=eastwest;rotatable=0;whiteSpace=wrap;html=1;" parent="UTym1vw6tCTuyiW-40KR-80" vertex="1">
          <mxGeometry y="90" width="240" height="30" as="geometry" />
        </mxCell>
        <mxCell id="UTym1vw6tCTuyiW-40KR-84" value="Местоположение (VARCHAR2)" style="text;strokeColor=none;fillColor=none;align=left;verticalAlign=middle;spacingLeft=4;spacingRight=4;overflow=hidden;points=[[0,0.5],[1,0.5]];portConstraint=eastwest;rotatable=0;whiteSpace=wrap;html=1;" parent="UTym1vw6tCTuyiW-40KR-80" vertex="1">
          <mxGeometry y="120" width="240" height="30" as="geometry" />
        </mxCell>
        <mxCell id="UTym1vw6tCTuyiW-40KR-85" value="Контактный телефон (VARCHAR2)" style="text;strokeColor=none;fillColor=none;align=left;verticalAlign=middle;spacingLeft=4;spacingRight=4;overflow=hidden;points=[[0,0.5],[1,0.5]];portConstraint=eastwest;rotatable=0;whiteSpace=wrap;html=1;" parent="UTym1vw6tCTuyiW-40KR-80" vertex="1">
          <mxGeometry y="150" width="240" height="30" as="geometry" />
        </mxCell>
        <mxCell id="UTym1vw6tCTuyiW-40KR-86" value="Транзакции" style="swimlane;fontStyle=0;childLayout=stackLayout;horizontal=1;startSize=30;horizontalStack=0;resizeParent=1;resizeParentMax=0;resizeLast=0;collapsible=1;marginBottom=0;whiteSpace=wrap;html=1;" parent="WIyWlLk6GJQsqaUBKTNV-1" vertex="1">
          <mxGeometry x="-30" y="1520" width="260" height="240" as="geometry" />
        </mxCell>
        <mxCell id="UTym1vw6tCTuyiW-40KR-87" value="[PK] Идентификатор транзакции (NUMBER)" style="text;strokeColor=none;fillColor=none;align=left;verticalAlign=middle;spacingLeft=4;spacingRight=4;overflow=hidden;points=[[0,0.5],[1,0.5]];portConstraint=eastwest;rotatable=0;whiteSpace=wrap;html=1;" parent="UTym1vw6tCTuyiW-40KR-86" vertex="1">
          <mxGeometry y="30" width="260" height="30" as="geometry" />
        </mxCell>
        <mxCell id="UTym1vw6tCTuyiW-40KR-88" value="Дата транзакции (DATE)" style="text;strokeColor=none;fillColor=none;align=left;verticalAlign=middle;spacingLeft=4;spacingRight=4;overflow=hidden;points=[[0,0.5],[1,0.5]];portConstraint=eastwest;rotatable=0;whiteSpace=wrap;html=1;" parent="UTym1vw6tCTuyiW-40KR-86" vertex="1">
          <mxGeometry y="60" width="260" height="30" as="geometry" />
        </mxCell>
        <mxCell id="UTym1vw6tCTuyiW-40KR-89" value="Тип транзакции (VARCHAR2)" style="text;strokeColor=none;fillColor=none;align=left;verticalAlign=middle;spacingLeft=4;spacingRight=4;overflow=hidden;points=[[0,0.5],[1,0.5]];portConstraint=eastwest;rotatable=0;whiteSpace=wrap;html=1;" parent="UTym1vw6tCTuyiW-40KR-86" vertex="1">
          <mxGeometry y="90" width="260" height="30" as="geometry" />
        </mxCell>
        <mxCell id="UTym1vw6tCTuyiW-40KR-90" value="Сумма транзакции (FLOAT)" style="text;strokeColor=none;fillColor=none;align=left;verticalAlign=middle;spacingLeft=4;spacingRight=4;overflow=hidden;points=[[0,0.5],[1,0.5]];portConstraint=eastwest;rotatable=0;whiteSpace=wrap;html=1;" parent="UTym1vw6tCTuyiW-40KR-86" vertex="1">
          <mxGeometry y="120" width="260" height="30" as="geometry" />
        </mxCell>
        <mxCell id="UTym1vw6tCTuyiW-40KR-91" value="Описание транзакции (VARCHAR2)" style="text;strokeColor=none;fillColor=none;align=left;verticalAlign=middle;spacingLeft=4;spacingRight=4;overflow=hidden;points=[[0,0.5],[1,0.5]];portConstraint=eastwest;rotatable=0;whiteSpace=wrap;html=1;" parent="UTym1vw6tCTuyiW-40KR-86" vertex="1">
          <mxGeometry y="150" width="260" height="30" as="geometry" />
        </mxCell>
        <mxCell id="UTym1vw6tCTuyiW-40KR-92" value="Банк одобривший транзакцию (VARCHAR2)" style="text;strokeColor=none;fillColor=none;align=left;verticalAlign=middle;spacingLeft=4;spacingRight=4;overflow=hidden;points=[[0,0.5],[1,0.5]];portConstraint=eastwest;rotatable=0;whiteSpace=wrap;html=1;" parent="UTym1vw6tCTuyiW-40KR-86" vertex="1">
          <mxGeometry y="180" width="260" height="30" as="geometry" />
        </mxCell>
        <mxCell id="UTym1vw6tCTuyiW-40KR-93" value="Наименование счета (VARCHAR2)" style="text;strokeColor=none;fillColor=none;align=left;verticalAlign=middle;spacingLeft=4;spacingRight=4;overflow=hidden;points=[[0,0.5],[1,0.5]];portConstraint=eastwest;rotatable=0;whiteSpace=wrap;html=1;" parent="UTym1vw6tCTuyiW-40KR-86" vertex="1">
          <mxGeometry y="210" width="260" height="30" as="geometry" />
        </mxCell>
        <mxCell id="UTym1vw6tCTuyiW-40KR-94" value="Сотрудники" style="swimlane;fontStyle=0;childLayout=stackLayout;horizontal=1;startSize=30;horizontalStack=0;resizeParent=1;resizeParentMax=0;resizeLast=0;collapsible=1;marginBottom=0;whiteSpace=wrap;html=1;" parent="WIyWlLk6GJQsqaUBKTNV-1" vertex="1">
          <mxGeometry x="2991" y="1490" width="259" height="240" as="geometry" />
        </mxCell>
        <mxCell id="UTym1vw6tCTuyiW-40KR-95" value="[PK] Идентификатор сотрудника (NUMBER)" style="text;strokeColor=none;fillColor=none;align=left;verticalAlign=middle;spacingLeft=4;spacingRight=4;overflow=hidden;points=[[0,0.5],[1,0.5]];portConstraint=eastwest;rotatable=0;whiteSpace=wrap;html=1;" parent="UTym1vw6tCTuyiW-40KR-94" vertex="1">
          <mxGeometry y="30" width="259" height="30" as="geometry" />
        </mxCell>
        <mxCell id="UTym1vw6tCTuyiW-40KR-96" value="[FK] ФИО сотрудника (VARCHAR2)" style="text;strokeColor=none;fillColor=none;align=left;verticalAlign=middle;spacingLeft=4;spacingRight=4;overflow=hidden;points=[[0,0.5],[1,0.5]];portConstraint=eastwest;rotatable=0;whiteSpace=wrap;html=1;" parent="UTym1vw6tCTuyiW-40KR-94" vertex="1">
          <mxGeometry y="60" width="259" height="30" as="geometry" />
        </mxCell>
        <mxCell id="UTym1vw6tCTuyiW-40KR-97" value="[FK] Контракт (VARCHAR2)" style="text;strokeColor=none;fillColor=none;align=left;verticalAlign=middle;spacingLeft=4;spacingRight=4;overflow=hidden;points=[[0,0.5],[1,0.5]];portConstraint=eastwest;rotatable=0;whiteSpace=wrap;html=1;" parent="UTym1vw6tCTuyiW-40KR-94" vertex="1">
          <mxGeometry y="90" width="259" height="30" as="geometry" />
        </mxCell>
        <mxCell id="UTym1vw6tCTuyiW-40KR-98" value="[FK] Роль (VARCHAR2)" style="text;strokeColor=none;fillColor=none;align=left;verticalAlign=middle;spacingLeft=4;spacingRight=4;overflow=hidden;points=[[0,0.5],[1,0.5]];portConstraint=eastwest;rotatable=0;whiteSpace=wrap;html=1;" parent="UTym1vw6tCTuyiW-40KR-94" vertex="1">
          <mxGeometry y="120" width="259" height="30" as="geometry" />
        </mxCell>
        <mxCell id="UTym1vw6tCTuyiW-40KR-99" value="Дата рождения (DATE)" style="text;strokeColor=none;fillColor=none;align=left;verticalAlign=middle;spacingLeft=4;spacingRight=4;overflow=hidden;points=[[0,0.5],[1,0.5]];portConstraint=eastwest;rotatable=0;whiteSpace=wrap;html=1;" parent="UTym1vw6tCTuyiW-40KR-94" vertex="1">
          <mxGeometry y="150" width="259" height="30" as="geometry" />
        </mxCell>
        <mxCell id="UTym1vw6tCTuyiW-40KR-100" value="Пол (VARCHAR2)" style="text;strokeColor=none;fillColor=none;align=left;verticalAlign=middle;spacingLeft=4;spacingRight=4;overflow=hidden;points=[[0,0.5],[1,0.5]];portConstraint=eastwest;rotatable=0;whiteSpace=wrap;html=1;" parent="UTym1vw6tCTuyiW-40KR-94" vertex="1">
          <mxGeometry y="180" width="259" height="30" as="geometry" />
        </mxCell>
        <mxCell id="UTym1vw6tCTuyiW-40KR-101" value="[FK] Отдел (VARCHAR2)" style="text;strokeColor=none;fillColor=none;align=left;verticalAlign=middle;spacingLeft=4;spacingRight=4;overflow=hidden;points=[[0,0.5],[1,0.5]];portConstraint=eastwest;rotatable=0;whiteSpace=wrap;html=1;" parent="UTym1vw6tCTuyiW-40KR-94" vertex="1">
          <mxGeometry y="210" width="259" height="30" as="geometry" />
        </mxCell>
        <mxCell id="UTym1vw6tCTuyiW-40KR-102" value="Роли" style="swimlane;fontStyle=0;childLayout=stackLayout;horizontal=1;startSize=30;horizontalStack=0;resizeParent=1;resizeParentMax=0;resizeLast=0;collapsible=1;marginBottom=0;whiteSpace=wrap;html=1;" parent="WIyWlLk6GJQsqaUBKTNV-1" vertex="1">
          <mxGeometry x="3516" y="1380" width="240" height="90" as="geometry" />
        </mxCell>
        <mxCell id="UTym1vw6tCTuyiW-40KR-103" value="[PK] Идентификатор роли (NUMBER)" style="text;strokeColor=none;fillColor=none;align=left;verticalAlign=middle;spacingLeft=4;spacingRight=4;overflow=hidden;points=[[0,0.5],[1,0.5]];portConstraint=eastwest;rotatable=0;whiteSpace=wrap;html=1;" parent="UTym1vw6tCTuyiW-40KR-102" vertex="1">
          <mxGeometry y="30" width="240" height="30" as="geometry" />
        </mxCell>
        <mxCell id="UTym1vw6tCTuyiW-40KR-104" value="[FK] Название роли (VARCHAR2)" style="text;strokeColor=none;fillColor=none;align=left;verticalAlign=middle;spacingLeft=4;spacingRight=4;overflow=hidden;points=[[0,0.5],[1,0.5]];portConstraint=eastwest;rotatable=0;whiteSpace=wrap;html=1;" parent="UTym1vw6tCTuyiW-40KR-102" vertex="1">
          <mxGeometry y="60" width="240" height="30" as="geometry" />
        </mxCell>
        <mxCell id="UTym1vw6tCTuyiW-40KR-105" value="Отделы" style="swimlane;fontStyle=0;childLayout=stackLayout;horizontal=1;startSize=30;horizontalStack=0;resizeParent=1;resizeParentMax=0;resizeLast=0;collapsible=1;marginBottom=0;whiteSpace=wrap;html=1;" parent="WIyWlLk6GJQsqaUBKTNV-1" vertex="1">
          <mxGeometry x="3480" y="1570" width="260" height="120" as="geometry" />
        </mxCell>
        <mxCell id="UTym1vw6tCTuyiW-40KR-106" value="[PK] Идентификатор отдела (NUMBER)" style="text;strokeColor=none;fillColor=none;align=left;verticalAlign=middle;spacingLeft=4;spacingRight=4;overflow=hidden;points=[[0,0.5],[1,0.5]];portConstraint=eastwest;rotatable=0;whiteSpace=wrap;html=1;" parent="UTym1vw6tCTuyiW-40KR-105" vertex="1">
          <mxGeometry y="30" width="260" height="30" as="geometry" />
        </mxCell>
        <mxCell id="UTym1vw6tCTuyiW-40KR-107" value="[FK] Наименование отдела (VARCHAR2)" style="text;strokeColor=none;fillColor=none;align=left;verticalAlign=middle;spacingLeft=4;spacingRight=4;overflow=hidden;points=[[0,0.5],[1,0.5]];portConstraint=eastwest;rotatable=0;whiteSpace=wrap;html=1;" parent="UTym1vw6tCTuyiW-40KR-105" vertex="1">
          <mxGeometry y="60" width="260" height="30" as="geometry" />
        </mxCell>
        <mxCell id="UTym1vw6tCTuyiW-40KR-108" value="[FK] Идентификатор сотрудника (NUMBER)" style="text;strokeColor=none;fillColor=none;align=left;verticalAlign=middle;spacingLeft=4;spacingRight=4;overflow=hidden;points=[[0,0.5],[1,0.5]];portConstraint=eastwest;rotatable=0;whiteSpace=wrap;html=1;" parent="UTym1vw6tCTuyiW-40KR-105" vertex="1">
          <mxGeometry y="90" width="260" height="30" as="geometry" />
        </mxCell>
        <mxCell id="UTym1vw6tCTuyiW-40KR-109" value="Трудовые договоры" style="swimlane;fontStyle=0;childLayout=stackLayout;horizontal=1;startSize=30;horizontalStack=0;resizeParent=1;resizeParentMax=0;resizeLast=0;collapsible=1;marginBottom=0;whiteSpace=wrap;html=1;" parent="WIyWlLk6GJQsqaUBKTNV-1" vertex="1">
          <mxGeometry x="2500" y="1500" width="271" height="180" as="geometry" />
        </mxCell>
        <mxCell id="UTym1vw6tCTuyiW-40KR-110" value="[PK] Идентификатор договора (NUMBER)" style="text;strokeColor=none;fillColor=none;align=left;verticalAlign=middle;spacingLeft=4;spacingRight=4;overflow=hidden;points=[[0,0.5],[1,0.5]];portConstraint=eastwest;rotatable=0;whiteSpace=wrap;html=1;" parent="UTym1vw6tCTuyiW-40KR-109" vertex="1">
          <mxGeometry y="30" width="271" height="30" as="geometry" />
        </mxCell>
        <mxCell id="UTym1vw6tCTuyiW-40KR-111" value="[FK] Идентификатор сотрудника (NUMBER)" style="text;strokeColor=none;fillColor=none;align=left;verticalAlign=middle;spacingLeft=4;spacingRight=4;overflow=hidden;points=[[0,0.5],[1,0.5]];portConstraint=eastwest;rotatable=0;whiteSpace=wrap;html=1;" parent="UTym1vw6tCTuyiW-40KR-109" vertex="1">
          <mxGeometry y="60" width="271" height="30" as="geometry" />
        </mxCell>
        <mxCell id="UTym1vw6tCTuyiW-40KR-112" value="Дата начала действия договора (DATE)" style="text;strokeColor=none;fillColor=none;align=left;verticalAlign=middle;spacingLeft=4;spacingRight=4;overflow=hidden;points=[[0,0.5],[1,0.5]];portConstraint=eastwest;rotatable=0;whiteSpace=wrap;html=1;" parent="UTym1vw6tCTuyiW-40KR-109" vertex="1">
          <mxGeometry y="90" width="271" height="30" as="geometry" />
        </mxCell>
        <mxCell id="UTym1vw6tCTuyiW-40KR-113" value="Дата окончания действия договора (DATE)" style="text;strokeColor=none;fillColor=none;align=left;verticalAlign=middle;spacingLeft=4;spacingRight=4;overflow=hidden;points=[[0,0.5],[1,0.5]];portConstraint=eastwest;rotatable=0;whiteSpace=wrap;html=1;" parent="UTym1vw6tCTuyiW-40KR-109" vertex="1">
          <mxGeometry y="120" width="271" height="30" as="geometry" />
        </mxCell>
        <mxCell id="UTym1vw6tCTuyiW-40KR-114" value="Тип договора (VARCHAR2)" style="text;strokeColor=none;fillColor=none;align=left;verticalAlign=middle;spacingLeft=4;spacingRight=4;overflow=hidden;points=[[0,0.5],[1,0.5]];portConstraint=eastwest;rotatable=0;whiteSpace=wrap;html=1;" parent="UTym1vw6tCTuyiW-40KR-109" vertex="1">
          <mxGeometry y="150" width="271" height="30" as="geometry" />
        </mxCell>
        <mxCell id="UTym1vw6tCTuyiW-40KR-115" value="Вакансии" style="swimlane;fontStyle=0;childLayout=stackLayout;horizontal=1;startSize=30;horizontalStack=0;resizeParent=1;resizeParentMax=0;resizeLast=0;collapsible=1;marginBottom=0;whiteSpace=wrap;html=1;" parent="WIyWlLk6GJQsqaUBKTNV-1" vertex="1">
          <mxGeometry x="3841" y="1770" width="259" height="210" as="geometry" />
        </mxCell>
        <mxCell id="UTym1vw6tCTuyiW-40KR-116" value="[PK] Идентификатор вакансии (NUMBER)" style="text;strokeColor=none;fillColor=none;align=left;verticalAlign=middle;spacingLeft=4;spacingRight=4;overflow=hidden;points=[[0,0.5],[1,0.5]];portConstraint=eastwest;rotatable=0;whiteSpace=wrap;html=1;" parent="UTym1vw6tCTuyiW-40KR-115" vertex="1">
          <mxGeometry y="30" width="259" height="30" as="geometry" />
        </mxCell>
        <mxCell id="UTym1vw6tCTuyiW-40KR-117" value="Должность (VARCHAR2)" style="text;strokeColor=none;fillColor=none;align=left;verticalAlign=middle;spacingLeft=4;spacingRight=4;overflow=hidden;points=[[0,0.5],[1,0.5]];portConstraint=eastwest;rotatable=0;whiteSpace=wrap;html=1;" parent="UTym1vw6tCTuyiW-40KR-115" vertex="1">
          <mxGeometry y="60" width="259" height="30" as="geometry" />
        </mxCell>
        <mxCell id="UTym1vw6tCTuyiW-40KR-118" value="[FK] Отдел (VARCHAR2)" style="text;strokeColor=none;fillColor=none;align=left;verticalAlign=middle;spacingLeft=4;spacingRight=4;overflow=hidden;points=[[0,0.5],[1,0.5]];portConstraint=eastwest;rotatable=0;whiteSpace=wrap;html=1;" parent="UTym1vw6tCTuyiW-40KR-115" vertex="1">
          <mxGeometry y="90" width="259" height="30" as="geometry" />
        </mxCell>
        <mxCell id="UTym1vw6tCTuyiW-40KR-119" value="Описание вакансии (VARCHAR2)" style="text;strokeColor=none;fillColor=none;align=left;verticalAlign=middle;spacingLeft=4;spacingRight=4;overflow=hidden;points=[[0,0.5],[1,0.5]];portConstraint=eastwest;rotatable=0;whiteSpace=wrap;html=1;" parent="UTym1vw6tCTuyiW-40KR-115" vertex="1">
          <mxGeometry y="120" width="259" height="30" as="geometry" />
        </mxCell>
        <mxCell id="UTym1vw6tCTuyiW-40KR-120" value="Заработная плата (FLOAT)" style="text;strokeColor=none;fillColor=none;align=left;verticalAlign=middle;spacingLeft=4;spacingRight=4;overflow=hidden;points=[[0,0.5],[1,0.5]];portConstraint=eastwest;rotatable=0;whiteSpace=wrap;html=1;" parent="UTym1vw6tCTuyiW-40KR-115" vertex="1">
          <mxGeometry y="150" width="259" height="30" as="geometry" />
        </mxCell>
        <mxCell id="UTym1vw6tCTuyiW-40KR-121" value="Статус вакансии (VARCHAR2)" style="text;strokeColor=none;fillColor=none;align=left;verticalAlign=middle;spacingLeft=4;spacingRight=4;overflow=hidden;points=[[0,0.5],[1,0.5]];portConstraint=eastwest;rotatable=0;whiteSpace=wrap;html=1;" parent="UTym1vw6tCTuyiW-40KR-115" vertex="1">
          <mxGeometry y="180" width="259" height="30" as="geometry" />
        </mxCell>
        <mxCell id="UTym1vw6tCTuyiW-40KR-122" value="Собеседовании" style="swimlane;fontStyle=0;childLayout=stackLayout;horizontal=1;startSize=30;horizontalStack=0;resizeParent=1;resizeParentMax=0;resizeLast=0;collapsible=1;marginBottom=0;whiteSpace=wrap;html=1;" parent="WIyWlLk6GJQsqaUBKTNV-1" vertex="1">
          <mxGeometry x="3100" y="1920" width="341" height="210" as="geometry" />
        </mxCell>
        <mxCell id="UTym1vw6tCTuyiW-40KR-123" value="[PK] Идентификатор собеседования (NUMBER)" style="text;strokeColor=none;fillColor=none;align=left;verticalAlign=middle;spacingLeft=4;spacingRight=4;overflow=hidden;points=[[0,0.5],[1,0.5]];portConstraint=eastwest;rotatable=0;whiteSpace=wrap;html=1;" parent="UTym1vw6tCTuyiW-40KR-122" vertex="1">
          <mxGeometry y="30" width="341" height="30" as="geometry" />
        </mxCell>
        <mxCell id="UTym1vw6tCTuyiW-40KR-124" value="[PK] Идентификатор вакансии (NUMBER)" style="text;strokeColor=none;fillColor=none;align=left;verticalAlign=middle;spacingLeft=4;spacingRight=4;overflow=hidden;points=[[0,0.5],[1,0.5]];portConstraint=eastwest;rotatable=0;whiteSpace=wrap;html=1;" parent="UTym1vw6tCTuyiW-40KR-122" vertex="1">
          <mxGeometry y="60" width="341" height="30" as="geometry" />
        </mxCell>
        <mxCell id="UTym1vw6tCTuyiW-40KR-125" value="Имя кандидата (VARCHAR2)" style="text;strokeColor=none;fillColor=none;align=left;verticalAlign=middle;spacingLeft=4;spacingRight=4;overflow=hidden;points=[[0,0.5],[1,0.5]];portConstraint=eastwest;rotatable=0;whiteSpace=wrap;html=1;" parent="UTym1vw6tCTuyiW-40KR-122" vertex="1">
          <mxGeometry y="90" width="341" height="30" as="geometry" />
        </mxCell>
        <mxCell id="UTym1vw6tCTuyiW-40KR-126" value="Дата собеседования (DATE)" style="text;strokeColor=none;fillColor=none;align=left;verticalAlign=middle;spacingLeft=4;spacingRight=4;overflow=hidden;points=[[0,0.5],[1,0.5]];portConstraint=eastwest;rotatable=0;whiteSpace=wrap;html=1;" parent="UTym1vw6tCTuyiW-40KR-122" vertex="1">
          <mxGeometry y="120" width="341" height="30" as="geometry" />
        </mxCell>
        <mxCell id="UTym1vw6tCTuyiW-40KR-127" value="Результат собеседования (VARCHAR2)" style="text;strokeColor=none;fillColor=none;align=left;verticalAlign=middle;spacingLeft=4;spacingRight=4;overflow=hidden;points=[[0,0.5],[1,0.5]];portConstraint=eastwest;rotatable=0;whiteSpace=wrap;html=1;" parent="UTym1vw6tCTuyiW-40KR-122" vertex="1">
          <mxGeometry y="150" width="341" height="30" as="geometry" />
        </mxCell>
        <mxCell id="UTym1vw6tCTuyiW-40KR-128" value="[FK] Сотрудник принимавший собеседование (VARCHAR2)" style="text;strokeColor=none;fillColor=none;align=left;verticalAlign=middle;spacingLeft=4;spacingRight=4;overflow=hidden;points=[[0,0.5],[1,0.5]];portConstraint=eastwest;rotatable=0;whiteSpace=wrap;html=1;" parent="UTym1vw6tCTuyiW-40KR-122" vertex="1">
          <mxGeometry y="180" width="341" height="30" as="geometry" />
        </mxCell>
        <mxCell id="UTym1vw6tCTuyiW-40KR-129" style="edgeStyle=orthogonalEdgeStyle;rounded=0;orthogonalLoop=1;jettySize=auto;html=1;entryX=1;entryY=0.5;entryDx=0;entryDy=0;startArrow=ERmany;startFill=0;endArrow=none;endFill=0;" parent="WIyWlLk6GJQsqaUBKTNV-1" source="UTym1vw6tCTuyiW-40KR-97" target="UTym1vw6tCTuyiW-40KR-110" edge="1">
          <mxGeometry relative="1" as="geometry" />
        </mxCell>
        <mxCell id="UTym1vw6tCTuyiW-40KR-130" style="edgeStyle=orthogonalEdgeStyle;rounded=0;orthogonalLoop=1;jettySize=auto;html=1;entryX=0;entryY=0.5;entryDx=0;entryDy=0;startArrow=ERmany;startFill=0;endArrow=none;endFill=0;" parent="WIyWlLk6GJQsqaUBKTNV-1" source="UTym1vw6tCTuyiW-40KR-124" target="UTym1vw6tCTuyiW-40KR-116" edge="1">
          <mxGeometry relative="1" as="geometry" />
        </mxCell>
        <mxCell id="UTym1vw6tCTuyiW-40KR-131" style="edgeStyle=orthogonalEdgeStyle;rounded=0;orthogonalLoop=1;jettySize=auto;html=1;entryX=0;entryY=0.5;entryDx=0;entryDy=0;startArrow=ERmany;startFill=0;endArrow=none;endFill=0;" parent="WIyWlLk6GJQsqaUBKTNV-1" source="UTym1vw6tCTuyiW-40KR-55" target="UTym1vw6tCTuyiW-40KR-68" edge="1">
          <mxGeometry relative="1" as="geometry">
            <Array as="points">
              <mxPoint x="2701" y="375" />
              <mxPoint x="2701" y="605" />
            </Array>
          </mxGeometry>
        </mxCell>
        <mxCell id="UTym1vw6tCTuyiW-40KR-132" style="edgeStyle=orthogonalEdgeStyle;rounded=0;orthogonalLoop=1;jettySize=auto;html=1;entryX=0;entryY=0.5;entryDx=0;entryDy=0;startArrow=ERmany;startFill=0;endArrow=none;endFill=0;" parent="WIyWlLk6GJQsqaUBKTNV-1" source="UTym1vw6tCTuyiW-40KR-93" target="UTym1vw6tCTuyiW-40KR-75" edge="1">
          <mxGeometry relative="1" as="geometry">
            <Array as="points">
              <mxPoint x="330" y="1745" />
              <mxPoint x="330" y="1595" />
            </Array>
          </mxGeometry>
        </mxCell>
        <mxCell id="UTym1vw6tCTuyiW-40KR-133" style="edgeStyle=orthogonalEdgeStyle;rounded=0;orthogonalLoop=1;jettySize=auto;html=1;startArrow=ERmany;startFill=0;endArrow=none;endFill=0;" parent="WIyWlLk6GJQsqaUBKTNV-1" source="UTym1vw6tCTuyiW-40KR-92" target="UTym1vw6tCTuyiW-40KR-82" edge="1">
          <mxGeometry relative="1" as="geometry" />
        </mxCell>
        <mxCell id="UTym1vw6tCTuyiW-40KR-134" style="edgeStyle=orthogonalEdgeStyle;rounded=0;orthogonalLoop=1;jettySize=auto;html=1;startArrow=ERmany;startFill=0;endArrow=none;endFill=0;" parent="WIyWlLk6GJQsqaUBKTNV-1" source="UTym1vw6tCTuyiW-40KR-79" target="UTym1vw6tCTuyiW-40KR-82" edge="1">
          <mxGeometry relative="1" as="geometry">
            <Array as="points">
              <mxPoint x="400" y="1715" />
              <mxPoint x="400" y="1905" />
            </Array>
          </mxGeometry>
        </mxCell>
        <mxCell id="UTym1vw6tCTuyiW-40KR-135" style="edgeStyle=orthogonalEdgeStyle;rounded=0;orthogonalLoop=1;jettySize=auto;html=1;entryX=1;entryY=0.5;entryDx=0;entryDy=0;startArrow=ERmany;startFill=0;endArrow=none;endFill=0;" parent="WIyWlLk6GJQsqaUBKTNV-1" source="UTym1vw6tCTuyiW-40KR-118" target="UTym1vw6tCTuyiW-40KR-107" edge="1">
          <mxGeometry relative="1" as="geometry" />
        </mxCell>
        <mxCell id="UTym1vw6tCTuyiW-40KR-136" style="edgeStyle=orthogonalEdgeStyle;rounded=0;orthogonalLoop=1;jettySize=auto;html=1;entryX=0;entryY=0.5;entryDx=0;entryDy=0;startArrow=ERmany;startFill=0;endArrow=none;endFill=0;" parent="WIyWlLk6GJQsqaUBKTNV-1" source="UTym1vw6tCTuyiW-40KR-128" target="UTym1vw6tCTuyiW-40KR-96" edge="1">
          <mxGeometry relative="1" as="geometry" />
        </mxCell>
        <mxCell id="UTym1vw6tCTuyiW-40KR-137" style="edgeStyle=orthogonalEdgeStyle;rounded=0;orthogonalLoop=1;jettySize=auto;html=1;entryX=0;entryY=0.5;entryDx=0;entryDy=0;startArrow=ERmany;startFill=0;endArrow=none;endFill=0;" parent="WIyWlLk6GJQsqaUBKTNV-1" source="UTym1vw6tCTuyiW-40KR-98" target="UTym1vw6tCTuyiW-40KR-104" edge="1">
          <mxGeometry relative="1" as="geometry" />
        </mxCell>
        <mxCell id="UTym1vw6tCTuyiW-40KR-138" style="edgeStyle=orthogonalEdgeStyle;rounded=0;orthogonalLoop=1;jettySize=auto;html=1;entryX=0;entryY=0.5;entryDx=0;entryDy=0;startArrow=ERmany;startFill=0;endArrow=none;endFill=0;" parent="WIyWlLk6GJQsqaUBKTNV-1" source="UTym1vw6tCTuyiW-40KR-101" target="UTym1vw6tCTuyiW-40KR-107" edge="1">
          <mxGeometry relative="1" as="geometry" />
        </mxCell>
        <mxCell id="UTym1vw6tCTuyiW-40KR-139" style="edgeStyle=orthogonalEdgeStyle;rounded=0;orthogonalLoop=1;jettySize=auto;html=1;startArrow=ERmany;startFill=0;endArrow=none;endFill=0;" parent="WIyWlLk6GJQsqaUBKTNV-1" source="UTym1vw6tCTuyiW-40KR-111" target="UTym1vw6tCTuyiW-40KR-96" edge="1">
          <mxGeometry relative="1" as="geometry" />
        </mxCell>
        <mxCell id="UTym1vw6tCTuyiW-40KR-141" style="edgeStyle=orthogonalEdgeStyle;rounded=0;orthogonalLoop=1;jettySize=auto;html=1;startArrow=ERmany;startFill=0;endArrow=none;endFill=0;" parent="WIyWlLk6GJQsqaUBKTNV-1" source="UTym1vw6tCTuyiW-40KR-53" target="UTym1vw6tCTuyiW-40KR-58" edge="1">
          <mxGeometry relative="1" as="geometry" />
        </mxCell>
        <mxCell id="UTym1vw6tCTuyiW-40KR-142" value="&lt;font style=&quot;font-size: 50px;&quot;&gt;Разработка игрового продукта&lt;/font&gt;" style="swimlane;fontStyle=0;childLayout=stackLayout;horizontal=1;startSize=100;horizontalStack=0;resizeParent=1;resizeParentMax=0;resizeLast=0;collapsible=1;marginBottom=0;whiteSpace=wrap;html=1;" parent="WIyWlLk6GJQsqaUBKTNV-1" vertex="1">
          <mxGeometry x="1600" y="610" width="1000" height="450" as="geometry" />
        </mxCell>
        <mxCell id="UTym1vw6tCTuyiW-40KR-143" value="[PK] Идентификатор продукта (NUMBER)" style="text;strokeColor=none;fillColor=none;align=left;verticalAlign=middle;spacingLeft=4;spacingRight=4;overflow=hidden;points=[[0,0.5],[1,0.5]];portConstraint=eastwest;rotatable=0;whiteSpace=wrap;html=1;fontSize=50;" parent="UTym1vw6tCTuyiW-40KR-142" vertex="1">
          <mxGeometry y="100" width="1000" height="130" as="geometry" />
        </mxCell>
        <mxCell id="UTym1vw6tCTuyiW-40KR-144" value="&lt;font style=&quot;font-size: 50px;&quot;&gt;[FK] Идентификатор игры (NUMBER)&lt;/font&gt;" style="text;strokeColor=none;fillColor=none;align=left;verticalAlign=middle;spacingLeft=4;spacingRight=4;overflow=hidden;points=[[0,0.5],[1,0.5]];portConstraint=eastwest;rotatable=0;whiteSpace=wrap;html=1;" parent="UTym1vw6tCTuyiW-40KR-142" vertex="1">
          <mxGeometry y="230" width="1000" height="130" as="geometry" />
        </mxCell>
        <mxCell id="UTym1vw6tCTuyiW-40KR-146" value="[FK] План игры (VARCHAR2)" style="text;strokeColor=none;fillColor=none;align=left;verticalAlign=middle;spacingLeft=4;spacingRight=4;overflow=hidden;points=[[0,0.5],[1,0.5]];portConstraint=eastwest;rotatable=0;whiteSpace=wrap;html=1;fontSize=50;" parent="UTym1vw6tCTuyiW-40KR-142" vertex="1">
          <mxGeometry y="360" width="1000" height="90" as="geometry" />
        </mxCell>
        <mxCell id="UTym1vw6tCTuyiW-40KR-152" value="Календарь поставления финансов" style="swimlane;fontStyle=0;childLayout=stackLayout;horizontal=1;startSize=30;horizontalStack=0;resizeParent=1;resizeParentMax=0;resizeLast=0;collapsible=1;marginBottom=0;whiteSpace=wrap;html=1;" parent="WIyWlLk6GJQsqaUBKTNV-1" vertex="1">
          <mxGeometry x="-330" y="1790" width="240" height="120" as="geometry" />
        </mxCell>
        <mxCell id="UTym1vw6tCTuyiW-40KR-153" value="[PK] Дата поставки (DATE)" style="text;strokeColor=none;fillColor=none;align=left;verticalAlign=middle;spacingLeft=4;spacingRight=4;overflow=hidden;points=[[0,0.5],[1,0.5]];portConstraint=eastwest;rotatable=0;whiteSpace=wrap;html=1;" parent="UTym1vw6tCTuyiW-40KR-152" vertex="1">
          <mxGeometry y="30" width="240" height="30" as="geometry" />
        </mxCell>
        <mxCell id="UTym1vw6tCTuyiW-40KR-154" value="[FK] Транзакция (NUMBER)" style="text;strokeColor=none;fillColor=none;align=left;verticalAlign=middle;spacingLeft=4;spacingRight=4;overflow=hidden;points=[[0,0.5],[1,0.5]];portConstraint=eastwest;rotatable=0;whiteSpace=wrap;html=1;" parent="UTym1vw6tCTuyiW-40KR-152" vertex="1">
          <mxGeometry y="60" width="240" height="30" as="geometry" />
        </mxCell>
        <mxCell id="UTym1vw6tCTuyiW-40KR-155" value="Примечание к поставке (VARCHAR2)" style="text;strokeColor=none;fillColor=none;align=left;verticalAlign=middle;spacingLeft=4;spacingRight=4;overflow=hidden;points=[[0,0.5],[1,0.5]];portConstraint=eastwest;rotatable=0;whiteSpace=wrap;html=1;" parent="UTym1vw6tCTuyiW-40KR-152" vertex="1">
          <mxGeometry y="90" width="240" height="30" as="geometry" />
        </mxCell>
        <mxCell id="UTym1vw6tCTuyiW-40KR-156" style="edgeStyle=orthogonalEdgeStyle;rounded=0;orthogonalLoop=1;jettySize=auto;html=1;entryX=0;entryY=0.5;entryDx=0;entryDy=0;startArrow=ERmany;startFill=0;endArrow=none;endFill=0;" parent="WIyWlLk6GJQsqaUBKTNV-1" source="UTym1vw6tCTuyiW-40KR-154" target="UTym1vw6tCTuyiW-40KR-87" edge="1">
          <mxGeometry relative="1" as="geometry" />
        </mxCell>
        <mxCell id="UTym1vw6tCTuyiW-40KR-158" style="edgeStyle=orthogonalEdgeStyle;rounded=0;orthogonalLoop=1;jettySize=auto;html=1;startArrow=ERmany;startFill=0;endArrow=none;endFill=0;" parent="WIyWlLk6GJQsqaUBKTNV-1" source="UTym1vw6tCTuyiW-40KR-65" target="UTym1vw6tCTuyiW-40KR-153" edge="1">
          <mxGeometry relative="1" as="geometry">
            <Array as="points">
              <mxPoint x="4320" y="435" />
              <mxPoint x="4320" y="2290" />
              <mxPoint x="-40" y="2290" />
              <mxPoint x="-40" y="1835" />
            </Array>
          </mxGeometry>
        </mxCell>
        <mxCell id="UTym1vw6tCTuyiW-40KR-159" style="edgeStyle=orthogonalEdgeStyle;rounded=0;orthogonalLoop=1;jettySize=auto;html=1;entryX=1;entryY=0.5;entryDx=0;entryDy=0;startArrow=ERmany;startFill=0;endArrow=none;endFill=0;" parent="WIyWlLk6GJQsqaUBKTNV-1" source="UTym1vw6tCTuyiW-40KR-56" target="UTym1vw6tCTuyiW-40KR-96" edge="1">
          <mxGeometry relative="1" as="geometry" />
        </mxCell>
        <mxCell id="UTym1vw6tCTuyiW-40KR-160" style="edgeStyle=orthogonalEdgeStyle;rounded=0;orthogonalLoop=1;jettySize=auto;html=1;startArrow=ERmany;startFill=0;endArrow=none;endFill=0;" parent="WIyWlLk6GJQsqaUBKTNV-1" source="UTym1vw6tCTuyiW-40KR-72" target="UTym1vw6tCTuyiW-40KR-96" edge="1">
          <mxGeometry relative="1" as="geometry">
            <Array as="points">
              <mxPoint x="3250" y="725" />
              <mxPoint x="3250" y="1565" />
            </Array>
          </mxGeometry>
        </mxCell>
        <mxCell id="UTym1vw6tCTuyiW-40KR-161" style="edgeStyle=orthogonalEdgeStyle;rounded=0;orthogonalLoop=1;jettySize=auto;html=1;entryX=1;entryY=0.5;entryDx=0;entryDy=0;startArrow=ERmany;startFill=0;endArrow=none;endFill=0;" parent="WIyWlLk6GJQsqaUBKTNV-1" source="UTym1vw6tCTuyiW-40KR-66" target="UTym1vw6tCTuyiW-40KR-96" edge="1">
          <mxGeometry relative="1" as="geometry">
            <Array as="points">
              <mxPoint x="3250" y="465" />
              <mxPoint x="3250" y="1565" />
            </Array>
          </mxGeometry>
        </mxCell>
        <mxCell id="UTym1vw6tCTuyiW-40KR-162" style="edgeStyle=orthogonalEdgeStyle;rounded=0;orthogonalLoop=1;jettySize=auto;html=1;startArrow=ERmany;startFill=0;endArrow=none;endFill=0;" parent="WIyWlLk6GJQsqaUBKTNV-1" source="UTym1vw6tCTuyiW-40KR-78" target="UTym1vw6tCTuyiW-40KR-96" edge="1">
          <mxGeometry relative="1" as="geometry">
            <Array as="points">
              <mxPoint x="1200" y="1685" />
              <mxPoint x="1200" y="1770" />
              <mxPoint x="2880" y="1770" />
              <mxPoint x="2880" y="1565" />
            </Array>
          </mxGeometry>
        </mxCell>
        <mxCell id="UTym1vw6tCTuyiW-40KR-163" style="edgeStyle=orthogonalEdgeStyle;rounded=0;orthogonalLoop=1;jettySize=auto;html=1;startArrow=ERmany;startFill=0;endArrow=none;endFill=0;" parent="WIyWlLk6GJQsqaUBKTNV-1" source="UTym1vw6tCTuyiW-40KR-14" target="UTym1vw6tCTuyiW-40KR-96" edge="1">
          <mxGeometry relative="1" as="geometry">
            <Array as="points">
              <mxPoint x="380" y="458" />
              <mxPoint x="380" y="390" />
              <mxPoint x="1500" y="390" />
              <mxPoint x="1500" y="1770" />
              <mxPoint x="2880" y="1770" />
              <mxPoint x="2880" y="1565" />
            </Array>
          </mxGeometry>
        </mxCell>
        <mxCell id="UTym1vw6tCTuyiW-40KR-164" style="edgeStyle=orthogonalEdgeStyle;rounded=0;orthogonalLoop=1;jettySize=auto;html=1;startArrow=ERmany;startFill=0;endArrow=none;endFill=0;" parent="WIyWlLk6GJQsqaUBKTNV-1" source="UTym1vw6tCTuyiW-40KR-26" target="UTym1vw6tCTuyiW-40KR-96" edge="1">
          <mxGeometry relative="1" as="geometry">
            <Array as="points">
              <mxPoint x="1200" y="648" />
              <mxPoint x="1200" y="1770" />
              <mxPoint x="2880" y="1770" />
              <mxPoint x="2880" y="1565" />
            </Array>
          </mxGeometry>
        </mxCell>
        <mxCell id="UTym1vw6tCTuyiW-40KR-165" style="edgeStyle=orthogonalEdgeStyle;rounded=0;orthogonalLoop=1;jettySize=auto;html=1;startArrow=ERmany;startFill=0;endArrow=none;endFill=0;" parent="WIyWlLk6GJQsqaUBKTNV-1" source="UTym1vw6tCTuyiW-40KR-21" target="UTym1vw6tCTuyiW-40KR-96" edge="1">
          <mxGeometry relative="1" as="geometry">
            <Array as="points">
              <mxPoint x="1500" y="678" />
              <mxPoint x="1500" y="1770" />
              <mxPoint x="2880" y="1770" />
              <mxPoint x="2880" y="1565" />
            </Array>
          </mxGeometry>
        </mxCell>
        <mxCell id="UTym1vw6tCTuyiW-40KR-166" style="edgeStyle=orthogonalEdgeStyle;rounded=0;orthogonalLoop=1;jettySize=auto;html=1;startArrow=ERmany;startFill=0;endArrow=none;endFill=0;" parent="WIyWlLk6GJQsqaUBKTNV-1" source="UTym1vw6tCTuyiW-40KR-15" target="UTym1vw6tCTuyiW-40KR-144" edge="1">
          <mxGeometry relative="1" as="geometry">
            <Array as="points">
              <mxPoint x="400" y="488" />
              <mxPoint x="400" y="550" />
              <mxPoint x="910" y="550" />
              <mxPoint x="910" y="905" />
            </Array>
          </mxGeometry>
        </mxCell>
        <mxCell id="UTym1vw6tCTuyiW-40KR-167" style="edgeStyle=orthogonalEdgeStyle;rounded=0;orthogonalLoop=1;jettySize=auto;html=1;startArrow=ERmany;startFill=0;endArrow=none;endFill=0;" parent="WIyWlLk6GJQsqaUBKTNV-1" source="UTym1vw6tCTuyiW-40KR-8" target="UTym1vw6tCTuyiW-40KR-2" edge="1">
          <mxGeometry relative="1" as="geometry">
            <Array as="points">
              <mxPoint x="10" y="188" />
              <mxPoint x="10" y="645" />
            </Array>
          </mxGeometry>
        </mxCell>
        <mxCell id="UTym1vw6tCTuyiW-40KR-168" style="edgeStyle=orthogonalEdgeStyle;rounded=0;orthogonalLoop=1;jettySize=auto;html=1;entryX=1;entryY=0.5;entryDx=0;entryDy=0;startArrow=ERmany;startFill=0;endArrow=none;endFill=0;" parent="WIyWlLk6GJQsqaUBKTNV-1" source="UTym1vw6tCTuyiW-40KR-41" target="UTym1vw6tCTuyiW-40KR-7" edge="1">
          <mxGeometry relative="1" as="geometry">
            <Array as="points">
              <mxPoint x="800" y="225" />
              <mxPoint x="800" y="390" />
              <mxPoint x="380" y="390" />
              <mxPoint x="380" y="158" />
            </Array>
          </mxGeometry>
        </mxCell>
        <mxCell id="gxO7_qetUmRc-j9wjkT1-0" style="edgeStyle=orthogonalEdgeStyle;rounded=0;orthogonalLoop=1;jettySize=auto;html=1;startArrow=ERmany;startFill=0;endArrow=none;endFill=0;" edge="1" parent="WIyWlLk6GJQsqaUBKTNV-1" source="UTym1vw6tCTuyiW-40KR-108" target="UTym1vw6tCTuyiW-40KR-95">
          <mxGeometry relative="1" as="geometry" />
        </mxCell>
        <mxCell id="gxO7_qetUmRc-j9wjkT1-1" style="edgeStyle=orthogonalEdgeStyle;rounded=0;orthogonalLoop=1;jettySize=auto;html=1;entryX=0;entryY=0.5;entryDx=0;entryDy=0;startArrow=ERmany;startFill=0;endArrow=none;endFill=0;" edge="1" parent="WIyWlLk6GJQsqaUBKTNV-1" source="UTym1vw6tCTuyiW-40KR-54" target="UTym1vw6tCTuyiW-40KR-62">
          <mxGeometry relative="1" as="geometry" />
        </mxCell>
        <mxCell id="gxO7_qetUmRc-j9wjkT1-4" style="edgeStyle=orthogonalEdgeStyle;rounded=0;orthogonalLoop=1;jettySize=auto;html=1;startArrow=ERmany;startFill=0;endArrow=none;endFill=0;" edge="1" parent="WIyWlLk6GJQsqaUBKTNV-1" source="UTym1vw6tCTuyiW-40KR-15" target="UTym1vw6tCTuyiW-40KR-146">
          <mxGeometry relative="1" as="geometry" />
        </mxCell>
        <mxCell id="gxO7_qetUmRc-j9wjkT1-5" style="edgeStyle=orthogonalEdgeStyle;rounded=0;orthogonalLoop=1;jettySize=auto;html=1;" edge="1" parent="WIyWlLk6GJQsqaUBKTNV-1" source="gxO7_qetUmRc-j9wjkT1-2" target="UTym1vw6tCTuyiW-40KR-144">
          <mxGeometry relative="1" as="geometry" />
        </mxCell>
      </root>
    </mxGraphModel>
  </diagram>
</mxfile>
